<svg width="17" height="17" viewBox="0 0 17 17" fill="none" xmlns="http://www.w3.org/2000/svg">
<path d="M5.97656 4.29688C6.6276 3.64583 7.40885 3.32031 8.32031 3.32031C9.23177 3.32031 10.013 3.64583 10.6641 4.29688C11.3151 4.94792 11.6406 5.72917 11.6406 6.64062C11.6406 7.34375 11.224 8.07292 10.3906 8.82812C9.55729 9.55729 9.14062 10.2214 9.14062 10.8203H7.5C7.5 10.2214 7.63021 9.71354 7.89062 9.29688C8.15104 8.85417 8.4375 8.54167 8.75 8.35938C9.0625 8.15104 9.34896 7.90365 9.60938 7.61719C9.86979 7.33073 10 7.00521 10 6.64062C10 6.19792 9.83073 5.82031 9.49219 5.50781C9.15365 5.16927 8.76302 5 8.32031 5C7.8776 5 7.48698 5.16927 7.14844 5.50781C6.8099 5.82031 6.64062 6.19792 6.64062 6.64062H5C5 5.72917 5.32552 4.94792 5.97656 4.29688ZM3.59375 13.0469C4.92188 14.349 6.4974 15 8.32031 15C10.1432 15 11.7057 14.349 13.0078 13.0469C14.3359 11.7188 15 10.1432 15 8.32031C15 6.4974 14.3359 4.9349 13.0078 3.63281C11.7057 2.30469 10.1432 1.64062 8.32031 1.64062C6.4974 1.64062 4.92188 2.30469 3.59375 3.63281C2.29167 4.9349 1.64062 6.4974 1.64062 8.32031C1.64062 10.1432 2.29167 11.7188 3.59375 13.0469ZM2.42188 2.46094C4.0625 0.820312 6.02865 0 8.32031 0C10.612 0 12.5651 0.820312 14.1797 2.46094C15.8203 4.07552 16.6406 6.02865 16.6406 8.32031C16.6406 10.612 15.8203 12.5781 14.1797 14.2188C12.5651 15.8333 10.612 16.6406 8.32031 16.6406C6.02865 16.6406 4.0625 15.8333 2.42188 14.2188C0.807292 12.5781 0 10.612 0 8.32031C0 6.02865 0.807292 4.07552 2.42188 2.46094ZM7.5 13.3203V11.6406H9.14062V13.3203H7.5Z" fill="#94A3B8"/>
</svg>
